Coordinates
version=1
nRows=11
nColumns=40
inDegrees=yes

Units are S.I. units (second, meters, Newtons, ...)
If the header above contains a line with 'inDegrees', this indicates whether rotational values are in degrees (yes) or radians (no).

endheader
time	pelvis_tilt	pelvis_list	pelvis_rotation	pelvis_tx	pelvis_ty	pelvis_tz	hip_flexion_r	hip_adduction_r	hip_rotation_r	knee_angle_r	knee_angle_r_beta	ankle_angle_r	subtalar_angle_r	mtp_angle_r	hip_flexion_l	hip_adduction_l	hip_rotation_l	knee_angle_l	knee_angle_l_beta	ankle_angle_l	subtalar_angle_l	mtp_angle_l	lumbar_extension	lumbar_bending	lumbar_rotation	arm_flex_r	arm_add_r	arm_rot_r	elbow_flex_r	pro_sup_r	wrist_flex_r	wrist_dev_r	arm_flex_l	arm_add_l	arm_rot_l	elbow_flex_l	pro_sup_l	wrist_flex_l	wrist_dev_l
      6.65000000	    -13.16977945	     49.85010651	    -89.98953889	      0.43425887	      0.70561412	     -0.53371928	     32.58155582	      4.00609361	    -39.97637347	      0.04547189	      0.00079363	     34.81303898	      0.00000000	      0.00000000	     90.50687485	     29.94774333	     39.96781527	     53.83788156	      0.93964830	    -18.50607538	      0.00000000	      0.00000000	    -89.91202822	     79.17954054	     49.41658360	     72.01290223	    -11.96947044	     21.01009443	     11.42198102	     51.97150086	      0.00000000	      0.00000000	     78.84380226	     -5.29647398	     81.49325834	     14.28684979	     24.32257077	      0.00000000	      0.00000000
      6.65500000	    -12.95359490	     49.95084832	    -89.98954893	      0.43404713	      0.70658356	     -0.53386312	     32.72387773	      3.84518647	    -39.97643242	      0.04538059	      0.00079204	     34.68054560	      0.00000000	      0.00000000	     90.47998423	     29.94853173	     39.96774797	     53.44519655	      0.93279465	    -18.56711180	      0.00000000	      0.00000000	    -89.91199470	     79.20907814	     49.48773299	     72.13498718	    -11.94810967	     20.98684737	     11.47287854	     51.94579006	      0.00000000	      0.00000000	     78.95215367	     -5.30101838	     81.48469975	     14.26206143	     24.31994443	      0.00000000	      0.00000000
      6.66000000	    -12.86261630	     49.99371682	    -89.98954342	      0.43363342	      0.70728545	     -0.53389587	     32.77902566	      3.82216168	    -39.97649500	      0.04515874	      0.00078817	     34.65475839	      0.00000000	      0.00000000	     90.50147060	     29.94814342	     39.96775613	     53.40086584	      0.93202093	    -18.59326111	      0.00000000	      0.00000000	    -89.91196183	     79.19071257	     49.51964063	     72.10775908	    -11.93167978	     20.98376586	     11.46858980	     51.94137705	      0.00000000	      0.00000000	     78.95170319	     -5.31902677	     81.48250085	     14.24353524	     24.31899973	      0.00000000	      0.00000000
      6.66500000	    -12.63752802	     50.08117468	    -89.98956353	      0.43346842	      0.70834912	     -0.53399460	     32.89622655	      3.65002452	    -39.97656138	      0.04506905	      0.00078660	     34.29237734	      0.00000000	      0.00000000	     90.45178458	     29.94922061	     39.96761138	     52.96330660	      0.92438408	    -18.81630593	      0.00000000	      0.00000000	    -89.91179465	     79.21812204	     49.59667099	     72.25368514	    -11.93328122	     20.95721636	     11.49668001	     51.90104001	      0.00000000	      0.00000000	     79.07143919	     -5.31767115	     81.47547850	     14.22294626	     24.31659507	      0.00000000	      0.00000000
      6.67000000	    -12.54975099	     50.12223373	    -89.98955752	      0.43305824	      0.70906987	     -0.53405243	     32.95382929	      3.63220857	    -39.97663412	      0.04480873	      0.00078206	     34.26324792	      0.00000000	      0.00000000	     90.47695554	     29.94869636	     39.96766490	     52.92672109	      0.92374555	    -18.84787116	      0.00000000	      0.00000000	    -89.91178434	     79.19681906	     49.62165276	     72.22391669	    -11.91382291	     20.95600914	     11.49055231	     51.89678621	      0.00000000	      0.00000000	     79.06715247	     -5.32944023	     81.47462582	     14.20724919	     24.31590579	      0.00000000	      0.00000000
      6.67500000	    -12.33995359	     50.19474023	    -89.98957105	      0.43291504	      0.71009349	     -0.53415045	     33.05596896	      3.47249419	    -39.97670560	      0.04470889	      0.00078032	     33.94767633	      0.00000000	      0.00000000	     90.41829939	     29.94937024	     39.96757300	     52.52162017	      0.91667520	    -19.02347276	      0.00000000	      0.00000000	    -89.91161853	     79.22547321	     49.70403021	     72.35753493	    -11.90854447	     20.94332630	     11.50996347	     51.86495931	      0.00000000	      0.00000000	     79.26536303	     -5.24103900	     81.45901171	     14.25181897	     24.31891263	      0.00000000	      0.00000000
      6.68000000	    -12.25883123	     50.23344804	    -89.98956876	      0.43256286	      0.71077742	     -0.53416868	     33.10153140	      3.45439379	    -39.97677841	      0.04442514	      0.00077536	     33.91026065	      0.00000000	      0.00000000	     90.44355823	     29.94898355	     39.96755925	     52.48630760	      0.91605888	    -19.05987391	      0.00000000	      0.00000000	    -89.91151659	     79.20358813	     49.73211248	     72.32438200	    -11.89918092	     20.94154470	     11.49782736	     51.86012953	      0.00000000	      0.00000000	     79.25545175	     -5.25938759	     81.45763946	     14.23556768	     24.31831162	      0.00000000	      0.00000000
      6.68500000	    -12.15580708	     50.27263675	    -89.98957248	      0.43221962	      0.71149355	     -0.53419335	     33.15094745	      3.41186782	    -39.97683459	      0.04422728	      0.00077191	     33.85607792	      0.00000000	      0.00000000	     90.45279818	     29.94896045	     39.96749416	     52.40831268	      0.91469761	    -19.10139784	      0.00000000	      0.00000000	    -89.91232180	     79.18098418	     49.77749618	     72.32117395	    -11.89472598	     20.93895014	     11.49799649	     51.85530447	      0.00000000	      0.00000000	     79.21738268	     -5.31183339	     81.45859593	     14.19720148	     24.31618709	      0.00000000	      0.00000000
      6.69000000	    -11.90875181	     50.33804208	    -89.98959510	      0.43215220	      0.71260384	     -0.53432343	     33.25450120	      3.20670252	    -39.97691009	      0.04416215	      0.00077077	     33.40404048	      0.00000000	      0.00000000	     90.35965665	     29.95008677	     39.96742826	     51.88522625	      0.90556803	    -19.38034433	      0.00000000	      0.00000000	    -89.91139339	     79.23720857	     49.81301023	     72.49959913	    -11.88817137	     20.93052026	     11.53472339	     51.82309547	      0.00000000	      0.00000000	     79.30099747	     -5.32392715	     81.45454309	     14.16236741	     24.31387099	      0.00000000	      0.00000000
      6.69500000	    -11.83233579	     50.37255307	    -89.98959592	      0.43178356	      0.71324389	     -0.53432783	     33.30073741	      3.19150846	    -39.97697941	      0.04392983	      0.00076672	     33.35739299	      0.00000000	      0.00000000	     90.38374719	     29.94981807	     39.96735431	     51.85619671	      0.90506137	    -19.42511512	      0.00000000	      0.00000000	    -89.91107463	     79.21523272	     49.83713071	     72.45601702	    -11.87150899	     20.93014899	     11.51888420	     51.81800355	      0.00000000	      0.00000000	     79.29461691	     -5.34091608	     81.45216873	     14.14599401	     24.31322851	      0.00000000	      0.00000000
      6.70000000	    -11.66389548	     50.31999574	    -89.98962600	      0.43169392	      0.71430606	     -0.53433777	     33.25746182	      3.06175981	    -39.97704478	      0.04382933	      0.00076497	     32.59580504	      0.00000000	      0.00000000	     90.22967248	     29.95076544	     39.96726826	     51.50898479	      0.89900138	    -19.99526550	      0.00000000	      0.00000000	    -89.91114917	     79.21145154	     49.79722803	     72.57700916	    -11.84129268	     20.91499069	     11.44660849	     51.72159243	      0.00000000	      0.00000000	     79.36658652	     -5.33861419	     81.42583905	     14.17869077	     24.31588423	      0.00000000	      0.00000000
